<svg xmlns="http://www.w3.org/2000/svg" width="64" height="64" viewBox="0 0 64 64" fill="none">
  <rect width="64" height="64" rx="14" fill="#0a0a0f"/>
  <path d="M18 24c0-5 4-9 9-9 2 0 4 .7 5 2 1-1.3 3-2 5-2 5 0 9 4 9 9 0 2.3-.9 4.4-2.3 6A11.5 11.5 0 0 1 46 38c0 6-5 11-11 11h-6c-6 0-11-5-11-11 0-3 1.2-5.8 3.3-7.8A9 9 0 0 1 18 24Z" stroke="#8b5cf6" stroke-width="4" stroke-linecap="round" stroke-linejoin="round"/>
  <path d="M32 17v32M22 31h20M24 40h16" stroke="#ec4899" stroke-width="3" stroke-linecap="round"/>
</svg>
